<svg width="800" height="800" viewBox="0 0 800 800" xmlns="http://www.w3.org/2000/svg">
  <!-- Email envelope -->
  <rect x="120" y="200" width="450" height="300" rx="20" ry="20" fill="none" stroke="#6b7280" stroke-width="20"/>
  <!-- Envelope flap -->
  <path d="M120 220 L345 380 L570 220" fill="none" stroke="#6b7280" stroke-width="20" stroke-linejoin="round"/>
  
  <!-- Broom handle -->
  <line x1="450" y1="150" x2="650" y2="50" stroke="#6b7280" stroke-width="25" stroke-linecap="round"/>
  
  <!-- Broom bristles -->
  <path d="M600 100 Q620 120 640 140 Q660 160 680 180" fill="none" stroke="#6b7280" stroke-width="15" stroke-linecap="round"/>
  <path d="M620 80 Q640 100 660 120 Q680 140 700 160" fill="none" stroke="#6b7280" stroke-width="15" stroke-linecap="round"/>
  <path d="M580 120 Q600 140 620 160 Q640 180 660 200" fill="none" stroke="#6b7280" stroke-width="15" stroke-linecap="round"/>
  
  <!-- Cleaning motion lines -->
  <path d="M500 200 Q520 180 540 200 Q560 220 580 200" fill="none" stroke="#d1d5db" stroke-width="8" stroke-linecap="round" opacity="0.7"/>
  <path d="M520 240 Q540 220 560 240 Q580 260 600 240" fill="none" stroke="#d1d5db" stroke-width="8" stroke-linecap="round" opacity="0.7"/>
</svg>
